<svg xmlns="http://www.w3.org/2000/svg" viewBox="0 0 1200 1600" width="1200" height="1600" preserveAspectRatio="xMidYMid slice"><defs><linearGradient id="sky" x1="0" y1="0" x2="0" y2="1"><stop offset="0.00" stop-color="#2b1230"/><stop offset="0.33" stop-color="#8a3a5a"/><stop offset="0.67" stop-color="#dd8a6a"/><stop offset="1.00" stop-color="#f7d59a"/></linearGradient><radialGradient id="g1"><stop offset="0" stop-color="#ffd58a" stop-opacity="0.75"/><stop offset="1" stop-color="#ffd58a" stop-opacity="0"/></radialGradient><linearGradient id="gr" x1="0" y1="0" x2="0" y2="1"><stop offset="0.00" stop-color="#2a0a12"/><stop offset="1.00" stop-color="#12040a"/></linearGradient><radialGradient id="vg" cx=".5" cy=".5" r=".75"><stop offset=".55" stop-color="#000" stop-opacity="0"/><stop offset="1" stop-color="#000" stop-opacity=".55"/></radialGradient></defs><rect width="1200" height="1600" fill="url(#sky)"/><circle cx="600" cy="800" r="900" fill="url(#g1)"/><circle cx="390" cy="388" r="12.5" fill="#f7e6bf" opacity="0.45"/><circle cx="599" cy="486" r="11.2" fill="#e3a96a" opacity="0.15"/><circle cx="242" cy="577" r="13.2" fill="#e3a96a" opacity="0.33"/><circle cx="807" cy="499" r="4.8" fill="#e3a96a" opacity="0.12"/><circle cx="75" cy="174" r="14.9" fill="#f0d28a" opacity="0.10"/><circle cx="542" cy="863" r="15.2" fill="#e3a96a" opacity="0.19"/><circle cx="418" cy="72" r="9.1" fill="#f7e6bf" opacity="0.14"/><circle cx="1152" cy="1095" r="3.8" fill="#f0d28a" opacity="0.49"/><circle cx="1167" cy="717" r="3.9" fill="#f0d28a" opacity="0.37"/><circle cx="934" cy="1240" r="3.7" fill="#e3a96a" opacity="0.28"/><circle cx="85" cy="971" r="15.3" fill="#e3a96a" opacity="0.44"/><circle cx="629" cy="45" r="11.3" fill="#e3a96a" opacity="0.44"/><circle cx="375" cy="1228" r="10.1" fill="#e3a96a" opacity="0.28"/><circle cx="22" cy="1295" r="7.5" fill="#f0d28a" opacity="0.28"/><circle cx="1041" cy="1251" r="13.4" fill="#f7e6bf" opacity="0.18"/><circle cx="749" cy="970" r="11.4" fill="#e3a96a" opacity="0.18"/><circle cx="414" cy="731" r="6.6" fill="#f0d28a" opacity="0.22"/><circle cx="201" cy="1057" r="13.8" fill="#f7e6bf" opacity="0.27"/><circle cx="1013" cy="647" r="8.1" fill="#e3a96a" opacity="0.20"/><circle cx="850" cy="28" r="4.1" fill="#e3a96a" opacity="0.41"/><circle cx="344" cy="444" r="11.4" fill="#f7e6bf" opacity="0.14"/><circle cx="879" cy="1327" r="5.4" fill="#f7e6bf" opacity="0.15"/><circle cx="1135" cy="39" r="10.5" fill="#f7e6bf" opacity="0.31"/><circle cx="1016" cy="578" r="12.3" fill="#f7e6bf" opacity="0.13"/><circle cx="534" cy="308" r="14.2" fill="#f7e6bf" opacity="0.28"/><circle cx="625" cy="413" r="10.4" fill="#f0d28a" opacity="0.46"/><circle cx="624" cy="277" r="10.8" fill="#f0d28a" opacity="0.20"/><circle cx="227" cy="1330" r="13.7" fill="#f0d28a" opacity="0.43"/><circle cx="378" cy="1006" r="7.2" fill="#e3a96a" opacity="0.25"/><circle cx="985" cy="1216" r="8.3" fill="#f7e6bf" opacity="0.27"/><circle cx="1107" cy="732" r="14.7" fill="#e3a96a" opacity="0.16"/><circle cx="370" cy="189" r="7.9" fill="#f0d28a" opacity="0.46"/><circle cx="338" cy="1198" r="6.4" fill="#f0d28a" opacity="0.18"/><circle cx="810" cy="928" r="3.8" fill="#f7e6bf" opacity="0.42"/><g transform="translate(336 207.9999999999999) scale(2.2)" fill="#1a060b" opacity=".55"><path fill-rule="evenodd" d="M8 320V244h224V320h-84v-38a28 28 0 0 0-56 0v38z"/><rect x="22" y="220" width="196" height="24"/><rect x="16" y="241" width="208" height="5"/><rect x="26" y="212" width="9" height="9" rx="1.5"/><rect x="205" y="212" width="9" height="9" rx="1.5"/><rect x="34.5" y="193" width="171" height="24"/><rect x="28.5" y="214" width="183" height="5"/><rect x="38.5" y="185" width="9" height="9" rx="1.5"/><rect x="192.5" y="185" width="9" height="9" rx="1.5"/><rect x="47" y="166" width="146" height="24"/><rect x="41" y="187" width="158" height="5"/><rect x="51" y="158" width="9" height="9" rx="1.5"/><rect x="180" y="158" width="9" height="9" rx="1.5"/><rect x="59.5" y="139" width="121" height="24"/><rect x="53.5" y="160" width="133" height="5"/><rect x="63.5" y="131" width="9" height="9" rx="1.5"/><rect x="167.5" y="131" width="9" height="9" rx="1.5"/><rect x="72" y="112" width="96" height="24"/><rect x="66" y="133" width="108" height="5"/><rect x="76" y="104" width="9" height="9" rx="1.5"/><rect x="155" y="104" width="9" height="9" rx="1.5"/><rect x="84.5" y="85" width="71" height="24"/><rect x="78.5" y="106" width="83" height="5"/><rect x="88.5" y="77" width="9" height="9" rx="1.5"/><rect x="142.5" y="77" width="9" height="9" rx="1.5"/><rect x="97" y="58" width="46" height="24"/><rect x="91" y="79" width="58" height="5"/><rect x="101" y="50" width="9" height="9" rx="1.5"/><rect x="130" y="50" width="9" height="9" rx="1.5"/><path d="M92 70c0-22 12-32 28-32s28 10 28 32z"/><rect x="114" y="18" width="12" height="20" rx="3"/><circle cx="120" cy="14" r="5"/><path d="M120 0l3 9h-6z"/></g><path d="M0 40 Q 600 62 1200 40" fill="none" stroke="#c39c47" stroke-opacity=".6" stroke-width="1.5"/><circle cx="50" cy="48" r="5" fill="#ffe2a0"/><circle cx="50" cy="48" r="14" fill="#ffd58a" opacity=".22"/><circle cx="150" cy="51" r="5" fill="#ffe2a0"/><circle cx="150" cy="51" r="14" fill="#ffd58a" opacity=".22"/><circle cx="250" cy="53" r="5" fill="#ffe2a0"/><circle cx="250" cy="53" r="14" fill="#ffd58a" opacity=".22"/><circle cx="350" cy="55" r="5" fill="#ffe2a0"/><circle cx="350" cy="55" r="14" fill="#ffd58a" opacity=".22"/><circle cx="450" cy="56" r="5" fill="#ffe2a0"/><circle cx="450" cy="56" r="14" fill="#ffd58a" opacity=".22"/><circle cx="550" cy="57" r="5" fill="#ffe2a0"/><circle cx="550" cy="57" r="14" fill="#ffd58a" opacity=".22"/><circle cx="650" cy="57" r="5" fill="#ffe2a0"/><circle cx="650" cy="57" r="14" fill="#ffd58a" opacity=".22"/><circle cx="750" cy="56" r="5" fill="#ffe2a0"/><circle cx="750" cy="56" r="14" fill="#ffd58a" opacity=".22"/><circle cx="850" cy="55" r="5" fill="#ffe2a0"/><circle cx="850" cy="55" r="14" fill="#ffd58a" opacity=".22"/><circle cx="950" cy="53" r="5" fill="#ffe2a0"/><circle cx="950" cy="53" r="14" fill="#ffd58a" opacity=".22"/><circle cx="1050" cy="51" r="5" fill="#ffe2a0"/><circle cx="1050" cy="51" r="14" fill="#ffd58a" opacity=".22"/><circle cx="1150" cy="48" r="5" fill="#ffe2a0"/><circle cx="1150" cy="48" r="14" fill="#ffd58a" opacity=".22"/><rect y="927.9999999999999" width="1200" height="672.0000000000001" fill="url(#gr)"/><g transform="translate(480 992) scale(1.02)" fill="#160407"><circle cx="0" cy="-292" r="21"/><path d="M-9 -274h18v16h-18z"/><path d="M-46 -255c0-8 10-13 24-14h44c14 1 24 6 24 14l10 92c1 8-4 12-10 12h-8l-4 110h-24l-4-98h-8l-4 98h-24l-4-110h-8c-6 0-11-4-10-12z"/><path d="M-46 -255l-30 92 14 4 34-84z"/><path d="M46 -255l30 92-14 4-34-84z"/><path d="M-18 -262l18 40 18-40z" fill="#c39c47" opacity=".7"/></g><g transform="translate(720 992) scale(1.02)" fill="#160407"><circle cx="0" cy="-286" r="19"/><circle cx="-2" cy="-306" r="10"/><path d="M-8 -268h16v16h-16z"/><path d="M-38 -250c0-8 10-12 22-13h32c12 1 22 5 22 13l6 60c30 20 46 80 52 190h-192c6-110 22-170 52-190z"/><path d="M22 -258c30 10 44 46 40 92l-14 4c2-34-8-62-30-74z" opacity=".95"/><path d="M-14 -262q14 20 28 0" fill="none" stroke="#c39c47" stroke-width="3" opacity=".8"/></g><rect width="1200" height="1600" fill="url(#vg)"/></svg>