<svg xmlns="http://www.w3.org/2000/svg" viewBox="0 0 800 800" width="800" height="800" preserveAspectRatio="xMidYMid slice"><defs><linearGradient id="sky" x1="0" y1="0" x2="0" y2="1"><stop offset="0.00" stop-color="#0e0406"/><stop offset="0.33" stop-color="#2a0a12"/><stop offset="0.67" stop-color="#4f1425"/><stop offset="1.00" stop-color="#8a4a3a"/></linearGradient><radialGradient id="g1"><stop offset="0" stop-color="#ffb95a" stop-opacity="0.55"/><stop offset="1" stop-color="#ffb95a" stop-opacity="0"/></radialGradient></defs><rect width="800" height="800" fill="url(#sky)"/><circle cx="400" cy="560" r="560" fill="url(#g1)"/><circle cx="359" cy="580" r="10.8" fill="#e3a96a" opacity="0.17"/><circle cx="219" cy="425" r="9.8" fill="#e3a96a" opacity="0.29"/><circle cx="706" cy="507" r="6.2" fill="#f0d28a" opacity="0.18"/><circle cx="549" cy="415" r="9.5" fill="#f0d28a" opacity="0.29"/><circle cx="41" cy="403" r="13.9" fill="#f0d28a" opacity="0.21"/><circle cx="149" cy="533" r="3.8" fill="#f7e6bf" opacity="0.11"/><circle cx="674" cy="332" r="5.2" fill="#e3a96a" opacity="0.23"/><circle cx="30" cy="35" r="8.8" fill="#f7e6bf" opacity="0.34"/><circle cx="517" cy="142" r="6.2" fill="#f0d28a" opacity="0.40"/><circle cx="406" cy="139" r="14.2" fill="#f0d28a" opacity="0.22"/><circle cx="528" cy="463" r="4.0" fill="#e3a96a" opacity="0.47"/><circle cx="755" cy="293" r="4.1" fill="#e3a96a" opacity="0.15"/><circle cx="13" cy="245" r="4.4" fill="#f7e6bf" opacity="0.34"/><circle cx="62" cy="489" r="14.7" fill="#e3a96a" opacity="0.21"/><circle cx="144" cy="354" r="12.2" fill="#e3a96a" opacity="0.15"/><circle cx="450" cy="623" r="15.9" fill="#f7e6bf" opacity="0.33"/><circle cx="477" cy="220" r="7.4" fill="#e3a96a" opacity="0.22"/><circle cx="675" cy="473" r="8.8" fill="#e3a96a" opacity="0.46"/><circle cx="436" cy="201" r="8.6" fill="#f0d28a" opacity="0.38"/><circle cx="629" cy="615" r="7.1" fill="#f0d28a" opacity="0.29"/><circle cx="104" cy="661" r="13.7" fill="#f0d28a" opacity="0.38"/><circle cx="179" cy="281" r="12.1" fill="#f0d28a" opacity="0.36"/><circle cx="166" cy="428" r="7.4" fill="#e3a96a" opacity="0.23"/><circle cx="314" cy="89" r="13.3" fill="#e3a96a" opacity="0.25"/><circle cx="590" cy="432" r="3.1" fill="#e3a96a" opacity="0.46"/><circle cx="483" cy="333" r="5.7" fill="#f0d28a" opacity="0.12"/><circle cx="567" cy="198" r="12.2" fill="#f0d28a" opacity="0.23"/><circle cx="177" cy="676" r="3.4" fill="#f7e6bf" opacity="0.50"/><circle cx="137" cy="381" r="5.1" fill="#f0d28a" opacity="0.26"/><circle cx="335" cy="467" r="8.6" fill="#f7e6bf" opacity="0.23"/><circle cx="262" cy="337" r="14.6" fill="#f7e6bf" opacity="0.32"/><circle cx="188" cy="221" r="10.7" fill="#f0d28a" opacity="0.23"/><circle cx="177" cy="115" r="11.7" fill="#e3a96a" opacity="0.23"/><circle cx="251" cy="29" r="4.6" fill="#f7e6bf" opacity="0.18"/><circle cx="304" cy="484" r="9.3" fill="#e3a96a" opacity="0.42"/><circle cx="123" cy="590" r="8.7" fill="#f7e6bf" opacity="0.44"/><circle cx="360" cy="100" r="14.6" fill="#f7e6bf" opacity="0.42"/><circle cx="312" cy="371" r="5.7" fill="#e3a96a" opacity="0.30"/><circle cx="675" cy="506" r="14.2" fill="#f0d28a" opacity="0.13"/><circle cx="405" cy="460" r="5.2" fill="#e3a96a" opacity="0.50"/><g transform="translate(250 160) scale(1.25)" fill="#160509"><path fill-rule="evenodd" d="M8 320V244h224V320h-84v-38a28 28 0 0 0-56 0v38z"/><rect x="22" y="220" width="196" height="24"/><rect x="16" y="241" width="208" height="5"/><rect x="26" y="212" width="9" height="9" rx="1.5"/><rect x="205" y="212" width="9" height="9" rx="1.5"/><rect x="34.5" y="193" width="171" height="24"/><rect x="28.5" y="214" width="183" height="5"/><rect x="38.5" y="185" width="9" height="9" rx="1.5"/><rect x="192.5" y="185" width="9" height="9" rx="1.5"/><rect x="47" y="166" width="146" height="24"/><rect x="41" y="187" width="158" height="5"/><rect x="51" y="158" width="9" height="9" rx="1.5"/><rect x="180" y="158" width="9" height="9" rx="1.5"/><rect x="59.5" y="139" width="121" height="24"/><rect x="53.5" y="160" width="133" height="5"/><rect x="63.5" y="131" width="9" height="9" rx="1.5"/><rect x="167.5" y="131" width="9" height="9" rx="1.5"/><rect x="72" y="112" width="96" height="24"/><rect x="66" y="133" width="108" height="5"/><rect x="76" y="104" width="9" height="9" rx="1.5"/><rect x="155" y="104" width="9" height="9" rx="1.5"/><rect x="84.5" y="85" width="71" height="24"/><rect x="78.5" y="106" width="83" height="5"/><rect x="88.5" y="77" width="9" height="9" rx="1.5"/><rect x="142.5" y="77" width="9" height="9" rx="1.5"/><rect x="97" y="58" width="46" height="24"/><rect x="91" y="79" width="58" height="5"/><rect x="101" y="50" width="9" height="9" rx="1.5"/><rect x="130" y="50" width="9" height="9" rx="1.5"/><path d="M92 70c0-22 12-32 28-32s28 10 28 32z"/><rect x="114" y="18" width="12" height="20" rx="3"/><circle cx="120" cy="14" r="5"/><path d="M120 0l3 9h-6z"/></g><circle cx="57" cy="683" r="34" fill="#ffd58a" opacity=".25"/><path d="M57.14285714285714 667.479320817627c8 10 10 18 0 26-10-8-8-16 0-26z" fill="#ffe3a3"/><path d="M33.14285714285714 697.479320817627c2 16 12 24 24 24s22-8 24-24z" fill="#8a3a1f"/><circle cx="171" cy="678" r="34" fill="#ffd58a" opacity=".25"/><path d="M171.42857142857142 661.9484135550447c8 10 10 18 0 26-10-8-8-16 0-26z" fill="#ffe3a3"/><path d="M147.42857142857142 691.9484135550447c2 16 12 24 24 24s22-8 24-24z" fill="#8a3a1f"/><circle cx="286" cy="684" r="34" fill="#ffd58a" opacity=".25"/><path d="M285.7142857142857 668.1092816726305c8 10 10 18 0 26-10-8-8-16 0-26z" fill="#ffe3a3"/><path d="M261.7142857142857 698.1092816726305c2 16 12 24 24 24s22-8 24-24z" fill="#8a3a1f"/><circle cx="400" cy="685" r="34" fill="#ffd58a" opacity=".25"/><path d="M400 668.5889120115899c8 10 10 18 0 26-10-8-8-16 0-26z" fill="#ffe3a3"/><path d="M376 698.5889120115899c2 16 12 24 24 24s22-8 24-24z" fill="#8a3a1f"/><circle cx="514" cy="677" r="34" fill="#ffd58a" opacity=".25"/><path d="M514.2857142857143 660.9816763522103c8 10 10 18 0 26-10-8-8-16 0-26z" fill="#ffe3a3"/><path d="M490.28571428571433 690.9816763522103c2 16 12 24 24 24s22-8 24-24z" fill="#8a3a1f"/><circle cx="629" cy="670" r="34" fill="#ffd58a" opacity=".25"/><path d="M628.5714285714286 653.5324684712104c8 10 10 18 0 26-10-8-8-16 0-26z" fill="#ffe3a3"/><path d="M604.5714285714286 683.5324684712104c2 16 12 24 24 24s22-8 24-24z" fill="#8a3a1f"/><circle cx="743" cy="672" r="34" fill="#ffd58a" opacity=".25"/><path d="M742.8571428571429 656.4072017273866c8 10 10 18 0 26-10-8-8-16 0-26z" fill="#ffe3a3"/><path d="M718.8571428571429 686.4072017273866c2 16 12 24 24 24s22-8 24-24z" fill="#8a3a1f"/></svg>