<svg xmlns="http://www.w3.org/2000/svg" viewBox="0 0 800 1040" width="800" height="1040" preserveAspectRatio="xMidYMid slice"><defs><linearGradient id="sky" x1="0" y1="0" x2="0" y2="1"><stop offset="0.00" stop-color="#1d0609"/><stop offset="0.33" stop-color="#5c1727"/><stop offset="0.67" stop-color="#b8514a"/><stop offset="1.00" stop-color="#f0b56b"/></linearGradient><radialGradient id="g1"><stop offset="0" stop-color="#ffd58a" stop-opacity="0.75"/><stop offset="1" stop-color="#ffd58a" stop-opacity="0"/></radialGradient><linearGradient id="gr" x1="0" y1="0" x2="0" y2="1"><stop offset="0.00" stop-color="#2a0a12"/><stop offset="1.00" stop-color="#12040a"/></linearGradient><radialGradient id="vg" cx=".5" cy=".5" r=".75"><stop offset=".55" stop-color="#000" stop-opacity="0"/><stop offset="1" stop-color="#000" stop-opacity=".55"/></radialGradient></defs><rect width="800" height="1040" fill="url(#sky)"/><circle cx="400" cy="520" r="600" fill="url(#g1)"/><circle cx="424" cy="538" r="9.7" fill="#f7e6bf" opacity="0.44"/><circle cx="64" cy="469" r="10.0" fill="#f7e6bf" opacity="0.28"/><circle cx="675" cy="371" r="9.2" fill="#e3a96a" opacity="0.37"/><circle cx="143" cy="244" r="5.1" fill="#f7e6bf" opacity="0.25"/><circle cx="102" cy="528" r="10.6" fill="#f7e6bf" opacity="0.27"/><circle cx="644" cy="680" r="14.0" fill="#f0d28a" opacity="0.35"/><circle cx="45" cy="655" r="6.3" fill="#e3a96a" opacity="0.22"/><circle cx="595" cy="307" r="4.9" fill="#f7e6bf" opacity="0.33"/><circle cx="115" cy="751" r="14.0" fill="#e3a96a" opacity="0.25"/><circle cx="61" cy="744" r="3.3" fill="#f7e6bf" opacity="0.31"/><circle cx="402" cy="649" r="6.5" fill="#f0d28a" opacity="0.36"/><circle cx="356" cy="561" r="3.6" fill="#e3a96a" opacity="0.27"/><circle cx="282" cy="43" r="9.1" fill="#e3a96a" opacity="0.27"/><circle cx="240" cy="490" r="12.9" fill="#f7e6bf" opacity="0.44"/><circle cx="95" cy="557" r="5.1" fill="#f7e6bf" opacity="0.15"/><circle cx="302" cy="829" r="7.8" fill="#e3a96a" opacity="0.35"/><circle cx="735" cy="519" r="8.3" fill="#f7e6bf" opacity="0.22"/><circle cx="7" cy="779" r="9.7" fill="#f0d28a" opacity="0.26"/><circle cx="64" cy="659" r="4.6" fill="#f7e6bf" opacity="0.31"/><circle cx="448" cy="550" r="4.3" fill="#e3a96a" opacity="0.48"/><circle cx="483" cy="507" r="10.8" fill="#f7e6bf" opacity="0.14"/><circle cx="521" cy="880" r="11.5" fill="#e3a96a" opacity="0.15"/><circle cx="518" cy="859" r="4.8" fill="#f7e6bf" opacity="0.47"/><circle cx="609" cy="578" r="7.9" fill="#f0d28a" opacity="0.21"/><circle cx="394" cy="555" r="11.6" fill="#f0d28a" opacity="0.39"/><circle cx="74" cy="490" r="7.1" fill="#f7e6bf" opacity="0.17"/><circle cx="748" cy="664" r="13.6" fill="#f0d28a" opacity="0.27"/><circle cx="455" cy="619" r="14.1" fill="#f7e6bf" opacity="0.10"/><circle cx="393" cy="144" r="9.4" fill="#e3a96a" opacity="0.13"/><circle cx="798" cy="542" r="4.1" fill="#e3a96a" opacity="0.43"/><circle cx="786" cy="45" r="14.9" fill="#f0d28a" opacity="0.34"/><circle cx="334" cy="471" r="8.1" fill="#f0d28a" opacity="0.12"/><circle cx="216" cy="369" r="9.0" fill="#e3a96a" opacity="0.27"/><circle cx="471" cy="329" r="7.4" fill="#e3a96a" opacity="0.22"/><g transform="translate(228.39999999999998 395.19999999999993) scale(1.4300000000000002)" fill="#1a060b" opacity=".55"><path fill-rule="evenodd" d="M8 320V244h224V320h-84v-38a28 28 0 0 0-56 0v38z"/><rect x="22" y="220" width="196" height="24"/><rect x="16" y="241" width="208" height="5"/><rect x="26" y="212" width="9" height="9" rx="1.5"/><rect x="205" y="212" width="9" height="9" rx="1.5"/><rect x="34.5" y="193" width="171" height="24"/><rect x="28.5" y="214" width="183" height="5"/><rect x="38.5" y="185" width="9" height="9" rx="1.5"/><rect x="192.5" y="185" width="9" height="9" rx="1.5"/><rect x="47" y="166" width="146" height="24"/><rect x="41" y="187" width="158" height="5"/><rect x="51" y="158" width="9" height="9" rx="1.5"/><rect x="180" y="158" width="9" height="9" rx="1.5"/><rect x="59.5" y="139" width="121" height="24"/><rect x="53.5" y="160" width="133" height="5"/><rect x="63.5" y="131" width="9" height="9" rx="1.5"/><rect x="167.5" y="131" width="9" height="9" rx="1.5"/><rect x="72" y="112" width="96" height="24"/><rect x="66" y="133" width="108" height="5"/><rect x="76" y="104" width="9" height="9" rx="1.5"/><rect x="155" y="104" width="9" height="9" rx="1.5"/><rect x="84.5" y="85" width="71" height="24"/><rect x="78.5" y="106" width="83" height="5"/><rect x="88.5" y="77" width="9" height="9" rx="1.5"/><rect x="142.5" y="77" width="9" height="9" rx="1.5"/><rect x="97" y="58" width="46" height="24"/><rect x="91" y="79" width="58" height="5"/><rect x="101" y="50" width="9" height="9" rx="1.5"/><rect x="130" y="50" width="9" height="9" rx="1.5"/><path d="M92 70c0-22 12-32 28-32s28 10 28 32z"/><rect x="114" y="18" width="12" height="20" rx="3"/><circle cx="120" cy="14" r="5"/><path d="M120 0l3 9h-6z"/></g><path d="M0 40 Q 400 62 800 40" fill="none" stroke="#c39c47" stroke-opacity=".6" stroke-width="1.5"/><circle cx="33" cy="48" r="5" fill="#ffe2a0"/><circle cx="33" cy="48" r="14" fill="#ffd58a" opacity=".22"/><circle cx="100" cy="51" r="5" fill="#ffe2a0"/><circle cx="100" cy="51" r="14" fill="#ffd58a" opacity=".22"/><circle cx="167" cy="53" r="5" fill="#ffe2a0"/><circle cx="167" cy="53" r="14" fill="#ffd58a" opacity=".22"/><circle cx="233" cy="55" r="5" fill="#ffe2a0"/><circle cx="233" cy="55" r="14" fill="#ffd58a" opacity=".22"/><circle cx="300" cy="56" r="5" fill="#ffe2a0"/><circle cx="300" cy="56" r="14" fill="#ffd58a" opacity=".22"/><circle cx="367" cy="57" r="5" fill="#ffe2a0"/><circle cx="367" cy="57" r="14" fill="#ffd58a" opacity=".22"/><circle cx="433" cy="57" r="5" fill="#ffe2a0"/><circle cx="433" cy="57" r="14" fill="#ffd58a" opacity=".22"/><circle cx="500" cy="56" r="5" fill="#ffe2a0"/><circle cx="500" cy="56" r="14" fill="#ffd58a" opacity=".22"/><circle cx="567" cy="55" r="5" fill="#ffe2a0"/><circle cx="567" cy="55" r="14" fill="#ffd58a" opacity=".22"/><circle cx="633" cy="53" r="5" fill="#ffe2a0"/><circle cx="633" cy="53" r="14" fill="#ffd58a" opacity=".22"/><circle cx="700" cy="51" r="5" fill="#ffe2a0"/><circle cx="700" cy="51" r="14" fill="#ffd58a" opacity=".22"/><circle cx="767" cy="48" r="5" fill="#ffe2a0"/><circle cx="767" cy="48" r="14" fill="#ffd58a" opacity=".22"/><rect y="863.1999999999999" width="800" height="176.80000000000007" fill="url(#gr)"/><g transform="translate(320 904.8) scale(0.62985)" fill="#160407"><circle cx="0" cy="-292" r="21"/><path d="M-9 -274h18v16h-18z"/><path d="M-46 -255c0-8 10-13 24-14h44c14 1 24 6 24 14l10 92c1 8-4 12-10 12h-8l-4 110h-24l-4-98h-8l-4 98h-24l-4-110h-8c-6 0-11-4-10-12z"/><path d="M-46 -255l-30 92 14 4 34-84z"/><path d="M46 -255l30 92-14 4-34-84z"/><path d="M-18 -262l18 40 18-40z" fill="#c39c47" opacity=".7"/></g><g transform="translate(480 904.8) scale(0.62985)" fill="#160407"><circle cx="0" cy="-286" r="19"/><circle cx="-2" cy="-306" r="10"/><path d="M-8 -268h16v16h-16z"/><path d="M-38 -250c0-8 10-12 22-13h32c12 1 22 5 22 13l6 60c30 20 46 80 52 190h-192c6-110 22-170 52-190z"/><path d="M22 -258c30 10 44 46 40 92l-14 4c2-34-8-62-30-74z" opacity=".95"/><path d="M-14 -262q14 20 28 0" fill="none" stroke="#c39c47" stroke-width="3" opacity=".8"/></g><rect width="800" height="1040" fill="url(#vg)"/></svg>