<svg xmlns="http://www.w3.org/2000/svg" viewBox="0 0 800 1000" width="800" height="1000" preserveAspectRatio="xMidYMid slice"><defs><linearGradient id="sky" x1="0" y1="0" x2="0" y2="1"><stop offset="0.00" stop-color="#1d0609"/><stop offset="0.33" stop-color="#5c1727"/><stop offset="0.67" stop-color="#b8514a"/><stop offset="1.00" stop-color="#f0b56b"/></linearGradient><radialGradient id="g1"><stop offset="0" stop-color="#ffd58a" stop-opacity="0.7"/><stop offset="1" stop-color="#ffd58a" stop-opacity="0"/></radialGradient><radialGradient id="vg" cx=".5" cy=".5" r=".75"><stop offset=".55" stop-color="#000" stop-opacity="0"/><stop offset="1" stop-color="#000" stop-opacity=".55"/></radialGradient></defs><rect width="800" height="1000" fill="url(#sky)"/><circle cx="400" cy="420" r="496" fill="url(#g1)"/><circle cx="266" cy="188" r="15.0" fill="#f0d28a" opacity="0.19"/><circle cx="62" cy="828" r="9.6" fill="#f7e6bf" opacity="0.38"/><circle cx="295" cy="623" r="13.0" fill="#e3a96a" opacity="0.31"/><circle cx="337" cy="417" r="12.7" fill="#e3a96a" opacity="0.47"/><circle cx="377" cy="296" r="15.7" fill="#e3a96a" opacity="0.21"/><circle cx="422" cy="291" r="12.8" fill="#f7e6bf" opacity="0.10"/><circle cx="432" cy="649" r="9.3" fill="#f0d28a" opacity="0.42"/><circle cx="264" cy="465" r="8.3" fill="#f0d28a" opacity="0.35"/><circle cx="445" cy="125" r="6.6" fill="#e3a96a" opacity="0.44"/><circle cx="280" cy="158" r="15.0" fill="#f7e6bf" opacity="0.30"/><circle cx="614" cy="813" r="3.9" fill="#f0d28a" opacity="0.29"/><circle cx="551" cy="472" r="14.8" fill="#e3a96a" opacity="0.22"/><circle cx="289" cy="395" r="13.0" fill="#e3a96a" opacity="0.10"/><circle cx="404" cy="669" r="6.1" fill="#e3a96a" opacity="0.13"/><circle cx="510" cy="832" r="9.0" fill="#f7e6bf" opacity="0.21"/><circle cx="616" cy="262" r="12.2" fill="#e3a96a" opacity="0.41"/><circle cx="788" cy="326" r="5.4" fill="#e3a96a" opacity="0.47"/><circle cx="97" cy="69" r="9.0" fill="#f0d28a" opacity="0.15"/><circle cx="94" cy="766" r="11.7" fill="#e3a96a" opacity="0.37"/><circle cx="306" cy="570" r="7.6" fill="#e3a96a" opacity="0.20"/><circle cx="584" cy="515" r="11.2" fill="#e3a96a" opacity="0.47"/><circle cx="88" cy="563" r="12.3" fill="#e3a96a" opacity="0.16"/><circle cx="589" cy="319" r="6.7" fill="#e3a96a" opacity="0.47"/><circle cx="611" cy="345" r="3.4" fill="#e3a96a" opacity="0.30"/><circle cx="552" cy="40" r="3.6" fill="#e3a96a" opacity="0.34"/><circle cx="351" cy="664" r="10.3" fill="#f7e6bf" opacity="0.21"/><path d="M70 1000C80 790 190 700 310 670L490 670C610 700 720 790 730 1000Z" fill="#2a1410"/><path d="M344 600h112v90c-30 30-82 30-112 0z" fill="#a8703f"/><ellipse cx="400" cy="480" rx="118" ry="146" fill="#b47a46"/><path d="M278 460c-4-80 40-118 122-118s126 38 122 118c-14-44-52-64-122-64s-108 20-122 64z" fill="#150907"/><path d="M150 700l250 190 250-190v-30l-250 170-250-170z" fill="#e8c777" opacity=".9"/><path d="M400 410v26" stroke="#b1252f" stroke-width="7" stroke-linecap="round"/><rect width="800" height="1000" fill="url(#vg)"/></svg>