<svg xmlns="http://www.w3.org/2000/svg" viewBox="0 0 640 800" width="640" height="800" preserveAspectRatio="xMidYMid slice"><defs><linearGradient id="sky" x1="0" y1="0" x2="0" y2="1"><stop offset="0.00" stop-color="#2a0c12"/><stop offset="0.33" stop-color="#7a2a30"/><stop offset="0.67" stop-color="#d8823f"/><stop offset="1.00" stop-color="#f9d48a"/></linearGradient><radialGradient id="g1"><stop offset="0" stop-color="#ffd58a" stop-opacity="0.75"/><stop offset="1" stop-color="#ffd58a" stop-opacity="0"/></radialGradient></defs><rect width="640" height="800" fill="url(#sky)"/><circle cx="320" cy="400" r="512" fill="url(#g1)"/><g transform="translate(74.00000000000003 128) scale(2.05)" fill="#1a060b"><path fill-rule="evenodd" d="M8 320V244h224V320h-84v-38a28 28 0 0 0-56 0v38z"/><rect x="22" y="220" width="196" height="24"/><rect x="16" y="241" width="208" height="5"/><rect x="26" y="212" width="9" height="9" rx="1.5"/><rect x="205" y="212" width="9" height="9" rx="1.5"/><rect x="34.5" y="193" width="171" height="24"/><rect x="28.5" y="214" width="183" height="5"/><rect x="38.5" y="185" width="9" height="9" rx="1.5"/><rect x="192.5" y="185" width="9" height="9" rx="1.5"/><rect x="47" y="166" width="146" height="24"/><rect x="41" y="187" width="158" height="5"/><rect x="51" y="158" width="9" height="9" rx="1.5"/><rect x="180" y="158" width="9" height="9" rx="1.5"/><rect x="59.5" y="139" width="121" height="24"/><rect x="53.5" y="160" width="133" height="5"/><rect x="63.5" y="131" width="9" height="9" rx="1.5"/><rect x="167.5" y="131" width="9" height="9" rx="1.5"/><rect x="72" y="112" width="96" height="24"/><rect x="66" y="133" width="108" height="5"/><rect x="76" y="104" width="9" height="9" rx="1.5"/><rect x="155" y="104" width="9" height="9" rx="1.5"/><rect x="84.5" y="85" width="71" height="24"/><rect x="78.5" y="106" width="83" height="5"/><rect x="88.5" y="77" width="9" height="9" rx="1.5"/><rect x="142.5" y="77" width="9" height="9" rx="1.5"/><rect x="97" y="58" width="46" height="24"/><rect x="91" y="79" width="58" height="5"/><rect x="101" y="50" width="9" height="9" rx="1.5"/><rect x="130" y="50" width="9" height="9" rx="1.5"/><path d="M92 70c0-22 12-32 28-32s28 10 28 32z"/><rect x="114" y="18" width="12" height="20" rx="3"/><circle cx="120" cy="14" r="5"/><path d="M120 0l3 9h-6z"/></g><circle cx="535" cy="510" r="11.7" fill="#f0d28a" opacity="0.27"/><circle cx="48" cy="633" r="7.5" fill="#e3a96a" opacity="0.37"/><circle cx="467" cy="389" r="7.2" fill="#f7e6bf" opacity="0.39"/><circle cx="457" cy="517" r="3.6" fill="#e3a96a" opacity="0.21"/><circle cx="533" cy="525" r="14.4" fill="#e3a96a" opacity="0.48"/><circle cx="406" cy="24" r="11.5" fill="#f0d28a" opacity="0.17"/><circle cx="178" cy="189" r="12.1" fill="#e3a96a" opacity="0.36"/><circle cx="524" cy="567" r="15.8" fill="#e3a96a" opacity="0.23"/><circle cx="239" cy="46" r="8.0" fill="#e3a96a" opacity="0.10"/><circle cx="29" cy="306" r="8.3" fill="#e3a96a" opacity="0.49"/><circle cx="523" cy="366" r="11.5" fill="#f7e6bf" opacity="0.16"/><circle cx="464" cy="655" r="15.4" fill="#e3a96a" opacity="0.21"/></svg>