<svg xmlns="http://www.w3.org/2000/svg" viewBox="0 0 1000 1250" width="1000" height="1250" preserveAspectRatio="xMidYMid slice"><defs><linearGradient id="sky" x1="0" y1="0" x2="0" y2="1"><stop offset="0.00" stop-color="#2a0c12"/><stop offset="0.33" stop-color="#7a2a30"/><stop offset="0.67" stop-color="#d8823f"/><stop offset="1.00" stop-color="#f9d48a"/></linearGradient><radialGradient id="g1"><stop offset="0" stop-color="#ffd58a" stop-opacity="0.8"/><stop offset="1" stop-color="#ffd58a" stop-opacity="0"/></radialGradient><linearGradient id="gr" x1="0" y1="0" x2="0" y2="1"><stop offset="0.00" stop-color="#2a0a12"/><stop offset="1.00" stop-color="#12040a"/></linearGradient><radialGradient id="vg" cx=".5" cy=".5" r=".75"><stop offset=".55" stop-color="#000" stop-opacity="0"/><stop offset="1" stop-color="#000" stop-opacity=".55"/></radialGradient></defs><rect width="1000" height="1250" fill="url(#sky)"/><circle cx="500" cy="687.5" r="700" fill="url(#g1)"/><circle cx="773" cy="233" r="12.0" fill="#f7e6bf" opacity="0.13"/><circle cx="720" cy="487" r="10.7" fill="#e3a96a" opacity="0.19"/><circle cx="741" cy="702" r="13.1" fill="#f0d28a" opacity="0.29"/><circle cx="897" cy="306" r="6.9" fill="#e3a96a" opacity="0.39"/><circle cx="19" cy="843" r="6.3" fill="#f0d28a" opacity="0.21"/><circle cx="470" cy="1054" r="4.6" fill="#f0d28a" opacity="0.13"/><circle cx="317" cy="433" r="14.0" fill="#e3a96a" opacity="0.21"/><circle cx="217" cy="924" r="8.0" fill="#e3a96a" opacity="0.45"/><circle cx="805" cy="690" r="9.7" fill="#f0d28a" opacity="0.35"/><circle cx="315" cy="828" r="10.5" fill="#f7e6bf" opacity="0.10"/><circle cx="342" cy="372" r="15.1" fill="#e3a96a" opacity="0.20"/><circle cx="834" cy="296" r="5.3" fill="#e3a96a" opacity="0.11"/><circle cx="759" cy="334" r="7.6" fill="#f7e6bf" opacity="0.13"/><circle cx="735" cy="558" r="4.0" fill="#f0d28a" opacity="0.47"/><circle cx="735" cy="1013" r="3.6" fill="#f0d28a" opacity="0.31"/><circle cx="847" cy="615" r="14.1" fill="#e3a96a" opacity="0.38"/><circle cx="110" cy="312" r="10.0" fill="#f7e6bf" opacity="0.16"/><circle cx="767" cy="147" r="6.3" fill="#f0d28a" opacity="0.23"/><circle cx="643" cy="438" r="13.5" fill="#f0d28a" opacity="0.22"/><circle cx="326" cy="747" r="15.4" fill="#e3a96a" opacity="0.14"/><circle cx="932" cy="644" r="13.2" fill="#f0d28a" opacity="0.24"/><circle cx="52" cy="448" r="8.2" fill="#e3a96a" opacity="0.22"/><circle cx="52" cy="867" r="13.0" fill="#f0d28a" opacity="0.30"/><circle cx="210" cy="634" r="13.7" fill="#f0d28a" opacity="0.25"/><circle cx="254" cy="724" r="11.6" fill="#f0d28a" opacity="0.20"/><circle cx="643" cy="481" r="15.8" fill="#e3a96a" opacity="0.12"/><circle cx="656" cy="21" r="11.0" fill="#f0d28a" opacity="0.23"/><circle cx="642" cy="1008" r="7.4" fill="#f7e6bf" opacity="0.45"/><circle cx="283" cy="68" r="13.1" fill="#f0d28a" opacity="0.12"/><circle cx="891" cy="480" r="6.0" fill="#f0d28a" opacity="0.41"/><g fill="#150509"><rect x="155" y="370" width="70" height="705"/><rect x="775" y="370" width="70" height="705"/><path d="M120 380 Q 500 160 880 380 L 880 350 Q 500 120 120 350Z"/><rect x="106" y="1061" width="788" height="14"/></g><path d="M190 378 Q 500 180 810 378" fill="none" stroke="#c39c47" stroke-opacity=".55" stroke-width="2"/><path d="M0 30 Q 500 60 1000 30" fill="none" stroke="#c39c47" stroke-opacity=".6" stroke-width="1.5"/><circle cx="31" cy="38" r="5" fill="#ffe2a0"/><circle cx="31" cy="38" r="14" fill="#ffd58a" opacity=".22"/><circle cx="94" cy="41" r="5" fill="#ffe2a0"/><circle cx="94" cy="41" r="14" fill="#ffd58a" opacity=".22"/><circle cx="156" cy="44" r="5" fill="#ffe2a0"/><circle cx="156" cy="44" r="14" fill="#ffd58a" opacity=".22"/><circle cx="219" cy="46" r="5" fill="#ffe2a0"/><circle cx="219" cy="46" r="14" fill="#ffd58a" opacity=".22"/><circle cx="281" cy="48" r="5" fill="#ffe2a0"/><circle cx="281" cy="48" r="14" fill="#ffd58a" opacity=".22"/><circle cx="344" cy="50" r="5" fill="#ffe2a0"/><circle cx="344" cy="50" r="14" fill="#ffd58a" opacity=".22"/><circle cx="406" cy="50" r="5" fill="#ffe2a0"/><circle cx="406" cy="50" r="14" fill="#ffd58a" opacity=".22"/><circle cx="469" cy="51" r="5" fill="#ffe2a0"/><circle cx="469" cy="51" r="14" fill="#ffd58a" opacity=".22"/><circle cx="531" cy="51" r="5" fill="#ffe2a0"/><circle cx="531" cy="51" r="14" fill="#ffd58a" opacity=".22"/><circle cx="594" cy="50" r="5" fill="#ffe2a0"/><circle cx="594" cy="50" r="14" fill="#ffd58a" opacity=".22"/><circle cx="656" cy="50" r="5" fill="#ffe2a0"/><circle cx="656" cy="50" r="14" fill="#ffd58a" opacity=".22"/><circle cx="719" cy="48" r="5" fill="#ffe2a0"/><circle cx="719" cy="48" r="14" fill="#ffd58a" opacity=".22"/><circle cx="781" cy="46" r="5" fill="#ffe2a0"/><circle cx="781" cy="46" r="14" fill="#ffd58a" opacity=".22"/><circle cx="844" cy="44" r="5" fill="#ffe2a0"/><circle cx="844" cy="44" r="14" fill="#ffd58a" opacity=".22"/><circle cx="906" cy="41" r="5" fill="#ffe2a0"/><circle cx="906" cy="41" r="14" fill="#ffd58a" opacity=".22"/><circle cx="969" cy="38" r="5" fill="#ffe2a0"/><circle cx="969" cy="38" r="14" fill="#ffd58a" opacity=".22"/><circle cx="56" cy="1114" r="34" fill="#ffd58a" opacity=".25"/><path d="M55.55555555555555 1097.5865938235074c8 10 10 18 0 26-10-8-8-16 0-26z" fill="#ffe3a3"/><path d="M31.55555555555555 1127.5865938235074c2 16 12 24 24 24s22-8 24-24z" fill="#8a3a1f"/><circle cx="167" cy="1105" r="34" fill="#ffd58a" opacity=".25"/><path d="M166.66666666666666 1088.5824150172994c8 10 10 18 0 26-10-8-8-16 0-26z" fill="#ffe3a3"/><path d="M142.66666666666666 1118.5824150172994c2 16 12 24 24 24s22-8 24-24z" fill="#8a3a1f"/><circle cx="278" cy="1123" r="34" fill="#ffd58a" opacity=".25"/><path d="M277.77777777777777 1106.8293808260933c8 10 10 18 0 26-10-8-8-16 0-26z" fill="#ffe3a3"/><path d="M253.77777777777777 1136.8293808260933c2 16 12 24 24 24s22-8 24-24z" fill="#8a3a1f"/><circle cx="389" cy="1119" r="34" fill="#ffd58a" opacity=".25"/><path d="M388.8888888888889 1103.2369908224791c8 10 10 18 0 26-10-8-8-16 0-26z" fill="#ffe3a3"/><path d="M364.8888888888889 1133.2369908224791c2 16 12 24 24 24s22-8 24-24z" fill="#8a3a1f"/><circle cx="500" cy="1125" r="34" fill="#ffd58a" opacity=".25"/><path d="M500 1109.1102617117576c8 10 10 18 0 26-10-8-8-16 0-26z" fill="#ffe3a3"/><path d="M476 1139.1102617117576c2 16 12 24 24 24s22-8 24-24z" fill="#8a3a1f"/><circle cx="611" cy="1101" r="34" fill="#ffd58a" opacity=".25"/><path d="M611.1111111111112 1085.492025911808c8 10 10 18 0 26-10-8-8-16 0-26z" fill="#ffe3a3"/><path d="M587.1111111111112 1115.492025911808c2 16 12 24 24 24s22-8 24-24z" fill="#8a3a1f"/><circle cx="722" cy="1104" r="34" fill="#ffd58a" opacity=".25"/><path d="M722.2222222222222 1088.1716858991422c8 10 10 18 0 26-10-8-8-16 0-26z" fill="#ffe3a3"/><path d="M698.2222222222222 1118.1716858991422c2 16 12 24 24 24s22-8 24-24z" fill="#8a3a1f"/><circle cx="833" cy="1120" r="34" fill="#ffd58a" opacity=".25"/><path d="M833.3333333333334 1104.149302057922c8 10 10 18 0 26-10-8-8-16 0-26z" fill="#ffe3a3"/><path d="M809.3333333333334 1134.149302057922c2 16 12 24 24 24s22-8 24-24z" fill="#8a3a1f"/><circle cx="944" cy="1104" r="34" fill="#ffd58a" opacity=".25"/><path d="M944.4444444444445 1088.2237926288508c8 10 10 18 0 26-10-8-8-16 0-26z" fill="#ffe3a3"/><path d="M920.4444444444445 1118.2237926288508c2 16 12 24 24 24s22-8 24-24z" fill="#8a3a1f"/><rect y="1125" width="1000" height="125" fill="url(#gr)"/><rect width="1000" height="1250" fill="url(#vg)"/></svg>